<svg width="38" height="36" viewBox="0 0 38 36" fill="none" xmlns="http://www.w3.org/2000/svg">
<g clip-path="url(#clip0_526_11159)">
<path d="M31.5002 29.999H30.0008V31.5H31.5002V29.999Z" fill="white"/>
<path d="M30.0008 29.999H28.4998V31.5H30.0008V29.999Z" fill="white"/>
<path d="M28.4998 29.999H27.0004V31.5H28.4998V29.999Z" fill="white"/>
<path d="M28.4998 31.5H27.0004V32.9994H28.4998V31.5Z" fill="white"/>
<path d="M27.0004 31.5H25.4995V32.9994H27.0004V31.5Z" fill="white"/>
<path d="M25.4994 31.5H24V32.9994H25.4994V31.5Z" fill="white"/>
<path d="M24 31.5H22.5005V32.9994H24V31.5Z" fill="white"/>
<path d="M25.4994 32.9995H24V34.5005H25.4994V32.9995Z" fill="white"/>
<path d="M24 32.9995H22.5005V34.5005H24V32.9995Z" fill="white"/>
<path d="M22.5006 32.9995H20.9996V34.5005H22.5006V32.9995Z" fill="white"/>
<path d="M20.9996 32.9995H19.5002V34.5005H20.9996V32.9995Z" fill="white"/>
<path d="M19.5002 34.5005H17.9992V35.9999H19.5002V34.5005Z" fill="white"/>
<path d="M17.9992 34.5005H16.4998V35.9999H17.9992V34.5005Z" fill="white"/>
<path d="M20.9996 34.5005H19.5002V35.9999H20.9996V34.5005Z" fill="white"/>
<path d="M37.501 7.49854H36V8.99949H37.501V7.49854Z" fill="white"/>
<path d="M37.501 5.99902H36V7.49845H37.501V5.99902Z" fill="white"/>
<path d="M37.501 4.5H36V5.99943H37.501V4.5Z" fill="white"/>
<path d="M37.501 2.99902H36V4.49998H37.501V2.99902Z" fill="white"/>
<path d="M36 20.9995H34.5005V22.4989H36V20.9995Z" fill="white"/>
<path d="M36 19.5H34.5005V20.9994H36V19.5Z" fill="white"/>
<path d="M36 17.999H34.5005V19.5H36V17.999Z" fill="white"/>
<path d="M36 16.5H34.5005V17.9994H36V16.5Z" fill="white"/>
<path d="M36 14.999H34.5005V16.5H36V14.999Z" fill="white"/>
<path d="M36 8.99951H34.5005V10.4989H36V8.99951Z" fill="white"/>
<path d="M36 1.49951H34.5005V2.99894H36V1.49951Z" fill="white"/>
<path d="M34.5006 22.499H32.9996V24H34.5006V22.499Z" fill="white"/>
<path d="M34.5006 13.4995H32.9996V14.9989H34.5006V13.4995Z" fill="white"/>
<path d="M34.5006 12H32.9996V13.4994H34.5006V12Z" fill="white"/>
<path d="M34.5006 8.99951H32.9996V10.4989H34.5006V8.99951Z" fill="white"/>
<path d="M34.5006 0H32.9996V1.49943H34.5006V0Z" fill="white"/>
<path d="M32.9996 24H31.5002V25.4994H32.9996V24Z" fill="white"/>
<path d="M32.9996 10.499H31.5002V12H32.9996V10.499Z" fill="white"/>
<path d="M32.9996 0H31.5002V1.49943H32.9996V0Z" fill="white"/>
<path d="M31.5002 25.4995H30.0008V27.0005H31.5002V25.4995Z" fill="white"/>
<path d="M31.5002 0H30.0008V1.49943H31.5002V0Z" fill="white"/>
<path d="M30.0008 25.4995H28.4998V27.0005H30.0008V25.4995Z" fill="white"/>
<path d="M30.0008 17.999H28.4998V19.5H30.0008V17.999Z" fill="#F37873"/>
<path d="M30.0008 0H28.4998V1.49943H30.0008V0Z" fill="white"/>
<path d="M28.4998 25.4995H27.0004V27.0005H28.4998V25.4995Z" fill="white"/>
<path d="M28.4998 24H27.0004V25.4994H28.4998V24Z" fill="white"/>
<path d="M28.4998 22.499H27.0004V24H28.4998V22.499Z" fill="white"/>
<path d="M28.4998 17.999H27.0004V19.5H28.4998V17.999Z" fill="#F37873"/>
<path d="M28.4998 2.99902H27.0004V4.49998H28.4998V2.99902Z" fill="white"/>
<path d="M28.4998 1.49951H27.0004V2.99894H28.4998V1.49951Z" fill="white"/>
<path d="M27.0004 27.0005H25.4995V28.4999H27.0004V27.0005Z" fill="white"/>
<path d="M27.0004 25.4995H25.4995V27.0005H27.0004V25.4995Z" fill="white"/>
<path d="M27.0004 24H25.4995V25.4994H27.0004V24Z" fill="white"/>
<path d="M27.0004 22.499H25.4995V24H27.0004V22.499Z" fill="white"/>
<path d="M27.0004 20.9995H25.4995V22.4989H27.0004V20.9995Z" fill="white"/>
<path d="M27.0004 16.5H25.4995V17.9994H27.0004V16.5Z" fill="white"/>
<path d="M27.0004 14.999H25.4995V16.5H27.0004V14.999Z" fill="white"/>
<path d="M27.0004 13.4995H25.4995V14.9989H27.0004V13.4995Z" fill="white"/>
<path d="M27.0004 4.5H25.4995V5.99943H27.0004V4.5Z" fill="white"/>
<path d="M25.4994 27.0005H24V28.4999H25.4994V27.0005Z" fill="white"/>
<path d="M25.4994 25.4995H24V27.0005H25.4994V25.4995Z" fill="white"/>
<path d="M25.4994 24H24V25.4994H25.4994V24Z" fill="white"/>
<path d="M25.4994 22.499H24V24H25.4994V22.499Z" fill="white"/>
<path d="M25.4994 20.9995H24V22.4989H25.4994V20.9995Z" fill="white"/>
<path d="M25.4994 19.5H24V20.9994H25.4994V19.5Z" fill="white"/>
<path d="M25.4994 16.5H24V17.9994H25.4994V16.5Z" fill="white"/>
<path d="M25.4994 14.999H24V16.5H25.4994V14.999Z" fill="white"/>
<path d="M25.4994 13.4995H24V14.9989H25.4994V13.4995Z" fill="white"/>
<path d="M25.4994 2.99902H24V4.49998H25.4994V2.99902Z" fill="white"/>
<path d="M24 27.0005H22.5005V28.4999H24V27.0005Z" fill="white"/>
<path d="M24 25.4995H22.5005V27.0005H24V25.4995Z" fill="white"/>
<path d="M24 24H22.5005V25.4994H24V24Z" fill="white"/>
<path d="M24 22.499H22.5005V24H24V22.499Z" fill="white"/>
<path d="M24 20.9995H22.5005V22.4989H24V20.9995Z" fill="white"/>
<path d="M24 19.5H22.5005V20.9994H24V19.5Z" fill="white"/>
<path d="M24 2.99902H22.5005V4.49998H24V2.99902Z" fill="white"/>
<path d="M22.5006 27.0005H20.9996V28.4999H22.5006V27.0005Z" fill="white"/>
<path d="M22.5006 25.4995H20.9996V27.0005H22.5006V25.4995Z" fill="white"/>
<path d="M22.5006 24H20.9996V25.4994H22.5006V24Z" fill="white"/>
<path d="M22.5006 22.499H20.9996V24H22.5006V22.499Z" fill="white"/>
<path d="M22.5006 20.9995H20.9996V22.4989H22.5006V20.9995Z" fill="white"/>
<path d="M22.5006 19.5H20.9996V20.9994H22.5006V19.5Z" fill="white"/>
<path d="M22.5006 17.999H20.9996V19.5H22.5006V17.999Z" fill="white"/>
<path d="M22.5006 1.49951H20.9996V2.99894H22.5006V1.49951Z" fill="white"/>
<path d="M20.9996 27.0005H19.5002V28.4999H20.9996V27.0005Z" fill="white"/>
<path d="M20.9996 25.4995H19.5002V27.0005H20.9996V25.4995Z" fill="white"/>
<path d="M20.9996 22.499H19.5002V24H20.9996V22.499Z" fill="white"/>
<path d="M20.9996 17.999H19.5002V19.5H20.9996V17.999Z" fill="white"/>
<path d="M20.9996 2.99902H19.5002V4.49998H20.9996V2.99902Z" fill="white"/>
<path d="M19.5002 32.9995H17.9992V34.5005H19.5002V32.9995Z" fill="white"/>
<path d="M19.5002 27.0005H17.9992V28.4999H19.5002V27.0005Z" fill="white"/>
<path d="M19.5002 25.4995H17.9992V27.0005H19.5002V25.4995Z" fill="white"/>
<path d="M19.5002 24H17.9992V25.4994H19.5002V24Z" fill="white"/>
<path d="M19.5002 17.999H17.9992V19.5H19.5002V17.999Z" fill="white"/>
<path d="M19.5002 1.49951H17.9992V2.99894H19.5002V1.49951Z" fill="white"/>
<path d="M17.9992 32.9995H16.4998V34.5005H17.9992V32.9995Z" fill="white"/>
<path d="M17.9992 27.0005H16.4998V28.4999H17.9992V27.0005Z" fill="white"/>
<path d="M17.9992 25.4995H16.4998V27.0005H17.9992V25.4995Z" fill="white"/>
<path d="M17.9992 22.499H16.4998V24H17.9992V22.499Z" fill="white"/>
<path d="M17.9992 17.999H16.4998V19.5H17.9992V17.999Z" fill="white"/>
<path d="M17.9992 2.99902H16.4998V4.49998H17.9992V2.99902Z" fill="white"/>
<path d="M16.4998 32.9995H15.0004V34.5005H16.4998V32.9995Z" fill="white"/>
<path d="M16.4998 27.0005H15.0004V28.4999H16.4998V27.0005Z" fill="white"/>
<path d="M16.4998 25.4995H15.0004V27.0005H16.4998V25.4995Z" fill="white"/>
<path d="M16.4998 24H15.0004V25.4994H16.4998V24Z" fill="white"/>
<path d="M16.4998 22.499H15.0004V24H16.4998V22.499Z" fill="white"/>
<path d="M16.4998 20.9995H15.0004V22.4989H16.4998V20.9995Z" fill="white"/>
<path d="M16.4998 19.5H15.0004V20.9994H16.4998V19.5Z" fill="white"/>
<path d="M16.4998 17.999H15.0004V19.5H16.4998V17.999Z" fill="white"/>
<path d="M16.4998 1.49951H15.0004V2.99894H16.4998V1.49951Z" fill="white"/>
<path d="M15.0004 32.9995H13.4995V34.5005H15.0004V32.9995Z" fill="white"/>
<path d="M15.0004 31.5H13.4995V32.9994H15.0004V31.5Z" fill="white"/>
<path d="M15.0004 27.0005H13.4995V28.4999H15.0004V27.0005Z" fill="white"/>
<path d="M15.0004 25.4995H13.4995V27.0005H15.0004V25.4995Z" fill="white"/>
<path d="M15.0004 24H13.4995V25.4994H15.0004V24Z" fill="white"/>
<path d="M15.0004 22.499H13.4995V24H15.0004V22.499Z" fill="white"/>
<path d="M15.0004 20.9995H13.4995V22.4989H15.0004V20.9995Z" fill="white"/>
<path d="M15.0004 19.5H13.4995V20.9994H15.0004V19.5Z" fill="white"/>
<path d="M15.0004 2.99902H13.4995V4.49998H15.0004V2.99902Z" fill="white"/>
<path d="M13.4994 32.9995H12V34.5005H13.4994V32.9995Z" fill="white"/>
<path d="M13.4994 31.5H12V32.9994H13.4994V31.5Z" fill="white"/>
<path d="M13.4994 27.0005H12V28.4999H13.4994V27.0005Z" fill="white"/>
<path d="M13.4994 25.4995H12V27.0005H13.4994V25.4995Z" fill="white"/>
<path d="M13.4994 24H12V25.4994H13.4994V24Z" fill="white"/>
<path d="M13.4994 22.499H12V24H13.4994V22.499Z" fill="white"/>
<path d="M13.4994 20.9995H12V22.4989H13.4994V20.9995Z" fill="white"/>
<path d="M13.4994 19.5H12V20.9994H13.4994V19.5Z" fill="white"/>
<path d="M13.4994 16.5H12V17.9994H13.4994V16.5Z" fill="white"/>
<path d="M13.4994 14.999H12V16.5H13.4994V14.999Z" fill="white"/>
<path d="M13.4994 13.4995H12V14.9989H13.4994V13.4995Z" fill="white"/>
<path d="M13.4994 2.99902H12V4.49998H13.4994V2.99902Z" fill="white"/>
<path d="M12 31.5H10.499V32.9994H12V31.5Z" fill="white"/>
<path d="M12 27.0005H10.499V28.4999H12V27.0005Z" fill="white"/>
<path d="M12 25.4995H10.499V27.0005H12V25.4995Z" fill="white"/>
<path d="M12 24H10.499V25.4994H12V24Z" fill="white"/>
<path d="M12 22.499H10.499V24H12V22.499Z" fill="white"/>
<path d="M12 20.9995H10.499V22.4989H12V20.9995Z" fill="white"/>
<path d="M12 16.5H10.499V17.9994H12V16.5Z" fill="white"/>
<path d="M12 14.999H10.499V16.5H12V14.999Z" fill="white"/>
<path d="M12 13.4995H10.499V14.9989H12V13.4995Z" fill="white"/>
<path d="M12 4.5H10.499V5.99943H12V4.5Z" fill="white"/>
<path d="M10.4991 31.5H8.99963V32.9994H10.4991V31.5Z" fill="white"/>
<path d="M10.4991 29.999H8.99963V31.5H10.4991V29.999Z" fill="white"/>
<path d="M10.4991 25.4995H8.99963V27.0005H10.4991V25.4995Z" fill="white"/>
<path d="M10.4991 24H8.99963V25.4994H10.4991V24Z" fill="white"/>
<path d="M10.4991 22.499H8.99963V24H10.4991V22.499Z" fill="white"/>
<path d="M10.4991 17.999H8.99963V19.5H10.4991V17.999Z" fill="#F37873"/>
<path d="M10.4991 2.99902H8.99963V4.49998H10.4991V2.99902Z" fill="white"/>
<path d="M10.4991 1.49951H8.99963V2.99894H10.4991V1.49951Z" fill="white"/>
<path d="M8.99961 29.999H7.50018V31.5H8.99961V29.999Z" fill="white"/>
<path d="M8.99961 25.4995H7.50018V27.0005H8.99961V25.4995Z" fill="white"/>
<path d="M8.99961 17.999H7.50018V19.5H8.99961V17.999Z" fill="#F37873"/>
<path d="M8.99961 5.99902H7.50018V7.49845H8.99961V5.99902Z" fill="white"/>
<path d="M8.99961 0H7.50018V1.49943H8.99961V0Z" fill="white"/>
<path d="M7.50016 29.999H5.99921V31.5H7.50016V29.999Z" fill="white"/>
<path d="M7.50016 25.4995H5.99921V27.0005H7.50016V25.4995Z" fill="white"/>
<path d="M7.50016 7.49854H5.99921V8.99949H7.50016V7.49854Z" fill="white"/>
<path d="M7.50016 5.99902H5.99921V7.49845H7.50016V5.99902Z" fill="white"/>
<path d="M7.50016 4.5H5.99921V5.99943H7.50016V4.5Z" fill="white"/>
<path d="M7.50016 0H5.99921V1.49943H7.50016V0Z" fill="white"/>
<path d="M5.99924 24H4.49982V25.4994H5.99924V24Z" fill="white"/>
<path d="M5.99924 10.499H4.49982V12H5.99924V10.499Z" fill="white"/>
<path d="M5.99924 5.99902H4.49982V7.49845H5.99924V5.99902Z" fill="white"/>
<path d="M5.99924 4.5H4.49982V5.99943H5.99924V4.5Z" fill="white"/>
<path d="M5.99924 0H4.49982V1.49943H5.99924V0Z" fill="white"/>
<path d="M4.4998 22.499H2.99884V24H4.4998V22.499Z" fill="white"/>
<path d="M4.4998 13.4995H2.99884V14.9989H4.4998V13.4995Z" fill="white"/>
<path d="M4.4998 12H2.99884V13.4994H4.4998V12Z" fill="white"/>
<path d="M4.4998 8.99951H2.99884V10.4989H4.4998V8.99951Z" fill="white"/>
<path d="M4.4998 0H2.99884V1.49943H4.4998V0Z" fill="white"/>
<path d="M2.99888 20.9995H1.49945V22.4989H2.99888V20.9995Z" fill="white"/>
<path d="M2.99888 19.5H1.49945V20.9994H2.99888V19.5Z" fill="white"/>
<path d="M2.99888 17.999H1.49945V19.5H2.99888V17.999Z" fill="white"/>
<path d="M2.99888 16.5H1.49945V17.9994H2.99888V16.5Z" fill="white"/>
<path d="M2.99888 14.999H1.49945V16.5H2.99888V14.999Z" fill="white"/>
<path d="M2.99888 8.99951H1.49945V10.4989H2.99888V8.99951Z" fill="white"/>
<path d="M2.99888 1.49951H1.49945V2.99894H2.99888V1.49951Z" fill="white"/>
<path d="M1.49943 7.49854H0V8.99949H1.49943V7.49854Z" fill="white"/>
<path d="M1.49943 5.99902H0V7.49845H1.49943V5.99902Z" fill="white"/>
<path d="M1.49943 4.5H0V5.99943H1.49943V4.5Z" fill="white"/>
<path d="M1.49943 2.99902H0V4.49998H1.49943V2.99902Z" fill="white"/>
<path d="M29.8156 5.99902H28.3162V7.49845H29.8156V5.99902Z" fill="white"/>
<path d="M31.3166 7.49854H29.8156V8.99949H31.3166V7.49854Z" fill="white"/>
<path d="M31.3166 5.99902H29.8156V7.49845H31.3166V5.99902Z" fill="white"/>
<path d="M31.3166 4.5H29.8156V5.99943H31.3166V4.5Z" fill="white"/>
<path d="M32.816 5.99902H31.3166V7.49845H32.816V5.99902Z" fill="white"/>
<path d="M32.816 4.5H31.3166V5.99943H32.816V4.5Z" fill="white"/>
</g>
<defs>
<clipPath id="clip0_526_11159">
<rect width="37.501" height="36" fill="white"/>
</clipPath>
</defs>
</svg>
