<svg width="33" height="32" viewBox="0 0 33 32" fill="none" xmlns="http://www.w3.org/2000/svg">
<path d="M16.1172 8.96219L21.9023 15.0392C21.9347 15.0716 21.955 15.1203 21.955 15.1689C21.955 15.2703 21.8739 15.3554 21.7685 15.3554L18.3874 15.3514C17.8482 15.3514 17.4145 15.7852 17.4145 16.3244V23.1352H14.8199V16.3244C14.8199 15.7852 14.3861 15.3514 13.8469 15.3514H10.4658C10.3645 15.3514 10.2793 15.2703 10.2793 15.1649C10.2793 15.1162 10.2996 15.0716 10.332 15.0352L16.1172 8.96219ZM23.9009 15.1649C23.9009 14.6176 23.6901 14.0906 23.3131 13.6933L17.3699 7.45408C17.0415 7.11354 16.5915 6.91895 16.1172 6.91895C15.6428 6.91895 15.1928 7.11354 14.8645 7.45408L8.92121 13.6973C8.54418 14.0906 8.33337 14.6176 8.33337 15.1649C8.33337 16.3406 9.28608 17.2973 10.4658 17.2973H12.8739V23.1352C12.8739 24.2095 13.7455 25.0811 14.8199 25.0811H17.4145C18.4888 25.0811 19.3604 24.2095 19.3604 23.1352V17.2973H21.7685C22.9442 17.2973 23.9009 16.3446 23.9009 15.1649Z" fill="#67C561"/>
</svg>
