<svg width="32" height="32" viewBox="0 0 32 32" fill="none" xmlns="http://www.w3.org/2000/svg">
<path d="M15.7838 23.0378L9.99865 16.9608C9.96621 16.9284 9.94594 16.8797 9.94594 16.8311C9.94594 16.7297 10.027 16.6446 10.1324 16.6446L13.5135 16.6486C14.0527 16.6486 14.4865 16.2148 14.4865 15.6756L14.4865 8.86484L17.0811 8.86484L17.0811 15.6756C17.0811 16.2148 17.5149 16.6486 18.0541 16.6486L21.4351 16.6486C21.5365 16.6486 21.6216 16.7297 21.6216 16.8351C21.6216 16.8838 21.6014 16.9284 21.5689 16.9648L15.7838 23.0378ZM8 16.8351C8 17.3824 8.21081 17.9094 8.58784 18.3067L14.5311 24.5459C14.8595 24.8865 15.3095 25.0811 15.7838 25.0811C16.2581 25.0811 16.7081 24.8865 17.0365 24.5459L22.9797 18.3027C23.3568 17.9094 23.5676 17.3824 23.5676 16.8351C23.5676 15.6594 22.6149 14.7027 21.4351 14.7027L19.027 14.7027L19.027 8.86484C19.027 7.79051 18.1554 6.91889 17.0811 6.91889L14.4865 6.91889C13.4122 6.91889 12.5405 7.79051 12.5405 8.86484L12.5405 14.7027L10.1324 14.7027C8.95676 14.7027 8 15.6554 8 16.8351Z" fill="#E83557"/>
</svg>
